HIERARCHY
ROOT Hips
{
    OFFSET 0.0 0.0 0.0
    CHANNELS 6 Xposition Yposition Zposition Zrotation Xrotation Yrotation
    JOINT LHipJoint
    {
        OFFSET 0.1 0.0 0.0
        CHANNELS 3 Zrotation Xrotation Yrotation
        JOINT LeftHip
        {
            OFFSET 0.11849307268857956 0.0 0.0
            CHANNELS 3 Zrotation Xrotation Yrotation
            JOINT LeftKnee
            {
                OFFSET 0.0 0.0 -0.4335598349571228
                CHANNELS 3 Zrotation Xrotation Yrotation
                JOINT LeftAnkle
                {
                    OFFSET 0.0 0.0 -0.4412427842617035
                    CHANNELS 3 Zrotation Xrotation Yrotation
                    End Site
                    {
                        OFFSET 0.0 -0.1 0.0
                    }
                }
            }
        }
    }
    JOINT lowerback
    {
        OFFSET 0.0 0.0 0.1
        CHANNELS 3 Zrotation Xrotation Yrotation
        JOINT Chest
        {
            OFFSET 0.0 0.0 0.22831785678863525
            CHANNELS 3 Zrotation Xrotation Yrotation
            JOINT Chest2
            {
                OFFSET 0.0 0.0 0.25189363956451416
                CHANNELS 3 Zrotation Xrotation Yrotation
                JOINT LeftCollar
                {
                    OFFSET 0.1 0.0 0.0
                    CHANNELS 3 Zrotation Xrotation Yrotation
                    JOINT LeftShoulder
                    {
                        OFFSET 0.12929795682430267 0.0 0.0
                        CHANNELS 3 Zrotation Xrotation Yrotation
                        JOINT LeftElbow
                        {
                            OFFSET 0.2524028420448303 0.0 0.0
                            CHANNELS 3 Zrotation Xrotation Yrotation
                            JOINT LeftWrist
                            {
                                OFFSET 0.24324209988117218 0.0 0.0
                                CHANNELS 3 Zrotation Xrotation Yrotation
                                End Site
                                {
                                    OFFSET 0.1 0.0 0.0
                                }
                            }
                        }
                    }
                }
                JOINT Neck
                {
                    OFFSET 0.0 0.0 0.1
                    CHANNELS 3 Zrotation Xrotation Yrotation
                    JOINT Head
                    {
                        OFFSET 0.0 0.0 0.11882233619689941
                        CHANNELS 3 Zrotation Xrotation Yrotation
                        End Site
                        {
                            OFFSET 0.0 0.0 0.1147061139345169
                        }
                    }
                }
                JOINT RightCollar
                {
                    OFFSET -0.1 0.0 0.0
                    CHANNELS 3 Zrotation Xrotation Yrotation
                    JOINT RightShoulder
                    {
                        OFFSET -0.12929795682430267 0.0 0.0
                        CHANNELS 3 Zrotation Xrotation Yrotation
                        JOINT RightElbow
                        {
                            OFFSET -0.2524028420448303 0.0 0.0
                            CHANNELS 3 Zrotation Xrotation Yrotation
                            JOINT RightWrist
                            {
                                OFFSET -0.24324209988117218 0.0 0.0
                                CHANNELS 3 Zrotation Xrotation Yrotation
                                End Site
                                {
                                    OFFSET -0.1 0.0 0.0
                                }
                            }
                        }
                    }
                }
            }
        }
    }
    JOINT RHipJoint
    {
        OFFSET -0.1 0.0 0.0
        CHANNELS 3 Zrotation Xrotation Yrotation
        JOINT RightHip
        {
            OFFSET -0.11849307268857956 0.0 0.0
            CHANNELS 3 Zrotation Xrotation Yrotation
            JOINT RightKnee
            {
                OFFSET 0.0 0.0 -0.4335598349571228
                CHANNELS 3 Zrotation Xrotation Yrotation
                JOINT RightAnkle
                {
                    OFFSET 0.0 0.0 -0.4412427842617035
                    CHANNELS 3 Zrotation Xrotation Yrotation
                    End Site
                    {
                        OFFSET 0.0 -0.1 0.0
                    }
                }
            }
        }
    }
}
MOTION
Frames: 6
Frame Time: 0.03333333333333333
1.4057466614758596e-05 0.8850834369659424 -5.6485223467461765e-06 -89.00268594164557 -44.46322104861394 -93.37018926001001 -3.1805546814635168e-15 4.770832022195275e-15 3.1805546814635168e-15 -0.6882312083397253 -6.899943856984373 -2.0711958943012663 0.8953526557636764 14.013652926897398 -3.7616354147355158 -8.827812596100317e-32 6.361109362927035e-15 1.5902773407317588e-15 -3.1805546814635168e-15 4.770832022195275e-15 3.1805546814635168e-15 -0.25220158744544613 -2.5496179372587733 -4.425155662577847 2.6882874120487372 -4.269763254170135e-06 1.2852797249728918e-06 -3.1805546814635164e-15 6.361109362927033e-15 1.7655625192200634e-31 -136.82275144648958 -51.295428013166365 -90.54170900912402 -46.78733595900547 -2.8834198290861424e-06 -6.592701886468648e-07 0.0 0.0 3.1805546814635168e-15 -3.1805546814635164e-15 6.361109362927033e-15 1.7655625192200634e-31 3.837716336323643 9.308480897420296 7.337137283034696 -3.1805546814635164e-15 6.361109362927033e-15 1.7655625192200634e-31 117.17317702521204 -30.994442894052778 70.19151018966815 15.386223763784757 5.838464870474173e-07 5.244288106997893e-07 -6.584742113967437e-15 4.5690826913409847e-32 -7.951386703658792e-16 -3.1805546814635168e-15 4.770832022195275e-15 3.1805546814635168e-15 -0.7639255079677348 -7.7050392931786575 -0.3166314838898054 1.274829827760477 13.212791880685776 1.2924749115770608 -3.1805546814635168e-15 6.3611093629270335e-15 3.1805546814635168e-15
1.387416705256328e-05 0.8850836753845215 -5.974368832539767e-06 -89.19375028833677 -44.503823880391444 -93.43425499017799 0.0 0.0 0.0 -0.6497711279054279 -6.378751040485112 -2.0698487617137635 0.8988179416644859 13.64137701950705 -3.623336510540773 -6.361109362927035e-15 6.361109362927035e-15 1.5902773407317592e-15 0.0 0.0 0.0 -0.26732780163976677 -2.6460273286797182 -4.355113592497596 2.820034552400105 -4.799672129897221e-06 -1.3826243147769442e-06 0.0 0.0 3.1805546814635164e-15 -136.08748647402842 -51.4310548082107 -89.65796157124117 -46.939570664939886 -6.787838720896421e-07 2.2099751391733005e-06 3.1805546814635168e-15 1.7655625192200634e-31 6.3611093629270335e-15 0.0 0.0 3.1805546814635164e-15 3.437051161472054 9.097296871796498 7.214257760290177 0.0 0.0 3.1805546814635164e-15 116.13533909254238 -30.25098564149811 69.72965091052886 14.907242539560414 2.7833840787508968e-06 -9.604510250014254e-07 -1.888454342118963e-15 1.5902773407317584e-15 -7.951386703658792e-16 0.0 0.0 0.0 -0.751114169360083 -7.422495133128312 -0.37110997210019847 1.2948039128522768 13.263963654691432 1.6130361926805332 -3.531125038440127e-31 1.272221872585407e-14 3.1805546814635176e-15
1.4196091797202826e-05 0.8850838541984558 -5.806228728033602e-06 -89.16206554946582 -44.79631052467253 -93.37401029624608 -2.648343778830095e-31 4.770832022195274e-15 6.361109362927033e-15 -0.6785071248759428 -6.737733893167165 -2.3120708811507313 0.8376882071580063 13.847728334006433 -3.4264253026700966 -6.361109362927033e-15 -1.590277340731758e-15 -3.1805546814635164e-15 -2.648343778830095e-31 4.770832022195274e-15 6.361109362927033e-15 -0.2662549346002049 -2.665905624650519 -4.395375853709922 3.0029406852297775 3.7551007985510872e-06 6.472926986240728e-07 -3.1805546814635164e-15 -8.827812596100317e-32 3.1805546814635164e-15 -137.38079792422678 -51.72887416165724 -90.17196530580935 -47.351664780667065 4.517956945409102e-06 -4.3500805771366244e-07 3.1805546814635168e-15 -6.3611093629270335e-15 1.7655625192200634e-31 -3.1805546814635164e-15 -8.827812596100317e-32 3.1805546814635164e-15 2.376367923985392 9.092296613419514 7.762741599641012 -3.1805546814635164e-15 -8.827812596100317e-32 3.1805546814635164e-15 120.4627945181682 -32.26206750114497 71.26385374850226 15.319952988429396 7.461835575757418e-08 -3.2650952173252594e-07 -8.448348372637465e-16 -3.9756933518293955e-16 3.9756933518293955e-16 -2.648343778830095e-31 4.770832022195274e-15 6.361109362927033e-15 -0.7679877340462775 -7.6728318377658695 -0.8092826915392028 1.1580480206159267 13.072120485859754 2.4316332387560053 -3.1805546814635164e-15 1.7655625192200634e-31 -6.361109362927033e-15
1.3901701095164753e-05 0.8850827813148499 -5.5052441894076765e-06 -89.30155520550753 -44.90232140248455 -93.54325076866284 -3.1805546814635164e-15 -1.5902773407317584e-15 3.1805546814635164e-15 -0.6855095950820096 -6.84214734418596 -2.5561382338587326 0.7783518468722841 13.975846374968151 -3.0725929701333516 3.1805546814635164e-15 0.0 0.0 -3.1805546814635164e-15 -1.5902773407317584e-15 3.1805546814635164e-15 -0.2566478806820534 -2.5823270153425417 -4.176891520272842 3.0544867817706525 -3.5511595577800655e-07 -3.489337413642989e-07 -9.541664044390553e-15 6.361109362927035e-15 -3.1805546814635168e-15 -136.45317148009815 -51.76907323653765 -89.45102606335232 -47.702362354352836 -1.0034167157671992e-06 -1.6385710538174332e-06 -3.1805546814635168e-15 6.3611093629270335e-15 -3.1805546814635168e-15 -9.541664044390553e-15 6.361109362927035e-15 -3.1805546814635168e-15 1.6779387203559166 8.836914936134493 7.472659082309309 -9.541664044390553e-15 6.361109362927035e-15 -3.1805546814635168e-15 119.67526872845842 -31.356149547006588 71.15578867608691 14.45692432995916 1.713461459365892e-06 -2.745612161097816e-07 -6.957463365701443e-15 -7.951386703658792e-16 -4.827710013492361e-32 -3.1805546814635164e-15 -1.5902773407317584e-15 3.1805546814635164e-15 -0.7634802617465647 -7.663342500727294 -0.9500560493137858 1.1320337727465182 13.224707308783369 2.745548321694007 -3.1805546814635164e-15 0.0 0.0
1.4187950000632554e-05 0.8850820064544678 -5.0088128773495555e-06 -89.52988298847715 -44.85112699767764 -93.72500616434294 3.1805546814635164e-15 6.361109362927033e-15 -1.7655625192200634e-31 -0.6556614464055109 -6.6658115890318514 -2.4511700444521227 0.7753606433246447 13.925522559919589 -3.2835820602979515 3.1805546814635164e-15 -4.770832022195274e-15 -1.590277340731758e-15 3.1805546814635164e-15 6.361109362927033e-15 -1.7655625192200634e-31 -0.2397413842566663 -2.4571948739781653 -4.239167891300014 3.0373070944206306 -6.214329494054715e-07 -9.1400583373581e-07 0.0 0.0 -3.1805546814635168e-15 -136.56079989103617 -51.85104800375506 -89.75513690467075 -47.39701742442824 6.193058100616859e-07 -1.1619931953297008e-06 0.0 6.3611093629270335e-15 0.0 0.0 0.0 -3.1805546814635168e-15 1.4395025101249401 9.094493505424802 7.520198225629388 0.0 0.0 -3.1805546814635168e-15 119.7108113071537 -32.52434966537604 71.07276214659382 15.48264408191323 3.1039994824117087e-06 -4.086263354855046e-07 7.156248033292914e-15 3.975693351829396e-16 -2.4828222926532145e-32 3.1805546814635164e-15 6.361109362927033e-15 -1.7655625192200634e-31 -0.7246028085325844 -7.413148032604471 -0.8603269662730657 1.1168454427695325 13.099672766435527 2.254682998036603 4.4139062980501586e-32 -1.5902773407317588e-15 3.1805546814635176e-15
1.4298631867859513e-05 0.8850811123847961 -4.828107194043696e-06 -89.64632716744812 -44.96079117728742 -93.7254382615403 3.1805546814635168e-15 0.0 0.0 -0.6363719417588459 -6.281156393165494 -2.4645901279289486 0.79500630273301 13.631065473566142 -3.2167624269538866 3.1805546814635168e-15 -8.827812596100317e-32 -3.1805546814635168e-15 3.1805546814635168e-15 0.0 0.0 -0.24701582473631234 -2.4575808262438175 -4.316329301572211 3.0043099495935683 -2.383464975620875e-06 1.0706548354130375e-07 0.0 0.0 3.1805546814635168e-15 -135.40536931077276 -52.32348042838105 -88.8226585223545 -47.66554878141021 5.742666149431566e-06 -6.576152798499435e-06 -3.1805546814635176e-15 -1.7655625192200634e-31 6.361109362927035e-15 0.0 0.0 3.1805546814635168e-15 1.8053340982533252 10.279342680608117 6.637940856672763 0.0 0.0 3.1805546814635168e-15 117.51368468063406 -32.54489867934394 70.11845983083808 15.802793046002236 -1.5795050493295656e-06 5.607423711616095e-07 -2.2363275104040347e-15 0.0 0.0 3.1805546814635168e-15 0.0 0.0 -0.7390624588917065 -7.339549432056599 -0.9545879209692585 1.133633881405547 13.096620464550842 1.801652742391865 2.2069531490250793e-31 7.951386703658793e-15 -3.1805546814635176e-15
